<svg width="630" height="630" viewBox="0 0 630 630" fill="none" xmlns="http://www.w3.org/2000/svg">
<g clip-path="url(#clip0_198_1396)">
<circle cx="315" cy="315" r="315" fill="black"/>
<path fill-rule="evenodd" clip-rule="evenodd" d="M315 540C439.264 540 540 439.264 540 315C540 190.736 439.264 90 315 90C190.736 90 90 190.736 90 315C90 439.264 190.736 540 315 540ZM315 600C472.401 600 600 472.401 600 315C600 157.599 472.401 30 315 30C157.599 30 30 157.599 30 315C30 472.401 157.599 600 315 600Z" fill="white"/>
<path fill-rule="evenodd" clip-rule="evenodd" d="M315 360C339.853 360 360 339.853 360 315C360 290.147 339.853 270 315 270C290.147 270 270 290.147 270 315C270 339.853 290.147 360 315 360ZM315 420C372.99 420 420 372.99 420 315C420 257.01 372.99 210 315 210C257.01 210 210 257.01 210 315C210 372.99 257.01 420 315 420Z" fill="white"/>
<path fill-rule="evenodd" clip-rule="evenodd" d="M448.707 315C448.707 389.558 388.265 450 313.707 450C303.396 450 293.355 448.844 283.707 446.655V507.707C293.486 509.217 303.505 510 313.707 510C421.403 510 508.707 422.696 508.707 315C508.707 207.304 421.403 120 313.707 120C216.213 120 135.431 191.547 121 285H182.052C195.694 224.88 249.459 180 313.707 180C388.265 180 448.707 240.442 448.707 315Z" fill="white"/>
</g>
<defs>
<clipPath id="clip0_198_1396">
<rect width="630" height="630" fill="white"/>
</clipPath>
</defs>
</svg>
