<svg width="1830" height="780" viewBox="0 0 1830 780" fill="none" xmlns="http://www.w3.org/2000/svg">
<path fill-rule="evenodd" clip-rule="evenodd" d="M1515 690C1515 706.569 1528.43 720 1545 720C1561.57 720 1575 706.569 1575 690C1575 673.431 1561.57 660 1545 660C1528.43 660 1515 673.431 1515 690ZM1545 600C1495.29 600 1455 640.294 1455 690C1455 739.706 1495.29 780 1545 780C1594.71 780 1635 739.706 1635 690C1635 640.294 1594.71 600 1545 600Z" fill="white"/>
<path fill-rule="evenodd" clip-rule="evenodd" d="M1545 510C1669.26 510 1770 409.264 1770 285C1770 160.736 1669.26 60 1545 60C1420.74 60 1320 160.736 1320 285C1320 409.264 1420.74 510 1545 510ZM1545 570C1702.4 570 1830 442.401 1830 285C1830 127.599 1702.4 0 1545 0C1387.6 0 1260 127.599 1260 285C1260 442.401 1387.6 570 1545 570Z" fill="white"/>
<path fill-rule="evenodd" clip-rule="evenodd" d="M1545 150C1470.44 150 1410 210.442 1410 285H1350C1350 177.304 1437.3 90 1545 90C1652.7 90 1740 177.304 1740 285C1740 392.696 1652.7 480 1545 480V420C1619.56 420 1680 359.558 1680 285C1680 210.442 1619.56 150 1545 150Z" fill="white"/>
<rect x="630" width="60" height="570" fill="white"/>
<path fill-rule="evenodd" clip-rule="evenodd" d="M780 0H720V570H780V360H1050V570H1110V0H1050V210L780 210V0ZM1050 300V270H780V300H1050Z" fill="white"/>
<rect x="1140" width="60" height="570" fill="white"/>
<path d="M390.001 150H180.001C163.433 150 150.001 163.431 150.001 180C150.001 196.569 163.433 210 180.001 210H285.001H390.001C489.412 210 570.001 290.589 570.001 390C570.001 489.411 489.412 570 390.001 570H180.001C85.6411 570 8.23945 497.393 0.617188 405H60.9295C68.311 464.195 118.807 510 180.001 510H390.001C456.275 510 510.001 456.274 510.001 390C510.001 323.726 456.275 270 390.001 270H285.001H180.001C130.295 270 90.0011 229.706 90.0011 180C90.0011 130.294 130.295 90 180.001 90H390.001C434.596 90 471.616 122.434 478.757 165L415.988 165C410.8 156.033 401.105 150 390.001 150Z" fill="white"/>
<path d="M390 60H180C113.726 60 60 113.726 60 180C60 246.274 113.726 300 180 300H285H390C439.706 300 480 340.294 480 390C480 439.706 439.706 480 390 480H180C135.405 480 98.3855 447.566 91.2444 405H154.013C159.201 413.967 168.896 420 180 420H390C406.569 420 420 406.569 420 390C420 373.431 406.569 360 390 360L285 360L180 360C80.5887 360 0 279.411 0 180C0 80.5887 80.5887 0 180 0H390C484.36 0 561.762 72.607 569.384 165H509.072C501.69 105.805 451.194 60 390 60Z" fill="white"/>
</svg>
